<svg width="156" height="36" xmlns="http://www.w3.org/2000/svg" xmlns:xlink="http://www.w3.org/1999/xlink">
 <title>logo-hneu-student-s-size</title>
 <desc>Created using Figma</desc>
 <defs>
  <path d="m18.7404,10.931c0,0.9075 -0.7359,1.6432 -1.6437,1.6432c-0.9078,0 -1.6438,-0.7357 -1.6438,-1.6432c0,-0.9074 0.736,-1.64308 1.6438,-1.64308c0.9078,0 1.6437,0.73568 1.6437,1.64308z" id="path0_fill"/>
  <path d="m17.1554,34.2386c9.4746,0 17.1554,-7.6646 17.1554,-17.1193c0,-9.45473 -7.6808,-17.1193 -17.1554,-17.1193c-9.47467,0 -17.1554,7.66457 -17.1554,17.1193c0,9.4547 7.68073,17.1193 17.1554,17.1193zm1.5045,-27.76501c3.5019,-1.65541 6.7618,-1.979 8.8052,-0.67256l-4.0723,4.39297c-1.5074,-1.44907 -3.1206,-2.70375 -4.7329,-3.72041zm-1.4333,-0.84156c1.168,-0.6162 2.3172,-1.10108 3.4071,-1.43856c0.2556,-0.07823 0.5121,-0.14977 0.7687,-0.2141c-0.4282,-1.39756 -2.0563,-2.43757 -3.9995,-2.43757c-1.9598,0 -3.5991,1.0579 -4.0101,2.47353c0.1486,0.04278 0.2971,0.08791 0.4452,0.1353c1.0855,0.35118 2.2286,0.8505 3.3886,1.4814zm-10.40093,0.14516c2.04863,-1.4042 5.38423,-1.06618 8.95713,0.67826c-1.6534,1.01365 -3.3108,2.27367 -4.8592,3.73545c-0.2489,-0.26773 -0.508,-0.54971 -0.7795,-0.84596l-3.31843,-3.56775zm-2.86948,7.59131c-1.35728,0.4648 -2.35786,2.0668 -2.35786,3.9717c0,1.8285 0.92192,3.3779 2.19631,3.9103c0.08118,-0.3043 0.17273,-0.6083 0.27386,-0.9109c0.34966,-1.0351 0.83593,-2.1212 1.4438,-3.223c-0.59394,-1.1094 -1.06651,-2.2016 -1.40304,-3.2411c-0.054,-0.1686 -0.10508,-0.3377 -0.15307,-0.507zm2.40041,2.3305c-1.72655,-3.5933 -2.0206,-6.93383 -0.5385,-8.9479l3.58576,3.3325c0.29381,0.269 0.57364,0.526 0.83944,0.7728c-1.51812,1.5375 -2.83028,3.1907 -3.8867,4.8426zm-0.01795,2.8457c-1.59784,3.2208 -2.0281,6.2506 -1.02872,8.3053c0.124,0.2439 0.26308,0.4692 0.41512,0.6727l4.42625,-4.0999c-1.49325,-1.5528 -2.78008,-3.2177 -3.81265,-4.8781zm4.83695,3.9127c-1.66379,-1.7187 -3.03231,-3.5382 -4.06471,-5.3307c1.05957,-1.7872 2.45859,-3.5975 4.15391,-5.3015c1.9574,1.9123 2.8966,3.2674 2.8966,5.2803c0,2.0436 -0.9674,3.4 -2.9858,5.3519zm-0.35,1.6426c-0.2187,0.2361 -0.4455,0.4829 -0.6815,0.7405l-3.41033,3.6666c2.03539,1.3893 5.34923,1.0842 8.91373,-0.6008c-1.644,-1.0367 -3.289,-2.3209 -4.8219,-3.8063zm6.2653,3.0557c-1.7843,-1.0418 -3.5924,-2.4149 -5.2984,-4.0791c1.9626,-2.0217 3.3294,-2.9911 5.3756,-2.9911c2.0436,0 3.4004,0.9662 5.3518,2.9823c-1.7503,1.6769 -3.6041,3.053 -5.429,4.0879zm-0.0101,1.5921c-1.1679,0.6162 -2.3172,1.1011 -3.407,1.4386c-0.0842,0.0258 -0.1684,0.0508 -0.2527,0.075c0.4537,1.3696 2.0644,2.3823 3.9818,2.3823c1.8181,0 3.3605,-0.9105 3.9021,-2.1724c-0.279,-0.0723 -0.5578,-0.1532 -0.8356,-0.2421c-1.0855,-0.3511 -2.2285,-0.8505 -3.3886,-1.4814zm9.9676,0.1162c-2.0679,1.0907 -5.1928,0.6868 -8.5238,-0.9396c1.6898,-1.036 3.3838,-2.3293 4.9615,-3.8324l4.1034,4.4266c-0.1664,0.1241 -0.3474,0.2397 -0.5411,0.3454zm3.3779,-7.5778c1.3207,-0.4959 2.2861,-2.0749 2.2861,-3.946c0,-1.8655 -0.9596,-3.4405 -2.2741,-3.9414c-0.0615,0.2143 -0.128,0.4282 -0.1993,0.6415c-0.3497,1.0351 -0.8359,2.1213 -1.4438,3.2231c0.5939,1.1093 1.0664,2.2015 1.403,3.2409c0.0832,0.2599 0.1595,0.5208 0.2281,0.7819zm-2.4754,-2.6053c1.6933,3.5242 2.0088,6.8051 0.6221,8.8301l-4.4116,-4.0864c1.477,-1.5094 2.7557,-3.1272 3.7895,-4.7437zm0.0179,-2.8456c0.43,-0.8666 0.7754,-1.7193 1.0311,-2.543c-0.0165,0.0037 -0.0331,0.0076 -0.0495,0.0116c0.0397,-0.0741 0.0779,-0.15 0.1147,-0.2276c0.7535,-2.5695 0.6192,-4.83908 -0.561,-6.33586l-3.5972,3.34316c-0.2955,0.2706 -0.5768,0.5289 -0.844,0.777c1.533,1.5802 2.8519,3.2798 3.9059,4.9747zm-4.9273,-4.0058c1.7047,1.7459 3.1041,3.5988 4.1551,5.4237c-1.0398,1.7539 -2.4065,3.53 -4.0594,5.2061c-2.0198,-1.9528 -2.9878,-3.3095 -2.9878,-5.3538c0,-2.0114 0.9377,-3.3659 2.8921,-5.276zm-0.6168,-0.6139c-1.9007,1.9494 -3.2463,2.8843 -5.2566,2.8843c-2.0111,0 -3.3659,-0.9364 -5.2753,-2.8881c1.7193,-1.63152 3.5354,-2.97346 5.3238,-3.98763c1.7529,1.02345 3.5287,2.36665 5.2081,3.99143z" fill-rule="evenodd" id="path1_fill"/>
  <path d="m42.9586,16.3738l-1.4026,0l0,4.8024l-0.8626,0l0,-10.2376l0.8626,0l0,4.6969l1.3605,0l3.9483,-4.6969l1.087,0l-4.1938,5.0344l4.5024,5.2032l-1.073,0l-4.2288,-4.8024z" id="path2_fill"/>
  <path d="m54.4248,21.1762c-0.0841,-0.2391 -0.1379,-0.593 -0.1613,-1.0617c-0.2945,0.3843 -0.6709,0.682 -1.1291,0.8929c-0.4535,0.2063 -0.935,0.3094 -1.4446,0.3094c-0.7294,0 -1.3208,-0.2039 -1.7743,-0.6117c-0.4489,-0.4078 -0.6733,-0.9235 -0.6733,-1.5469c0,-0.7406 0.3062,-1.3266 0.9187,-1.7578c0.6172,-0.4313 1.4751,-0.6469 2.5738,-0.6469l1.5218,0l0,-0.8649c0,-0.5437 -0.1683,-0.9703 -0.5049,-1.2797c-0.332,-0.314 -0.8182,-0.4711 -1.4587,-0.4711c-0.5844,0 -1.0683,0.15 -1.4517,0.45c-0.3834,0.3 -0.5751,0.661 -0.5751,1.0829l-0.8415,-0.0071c0,-0.6047 0.2805,-1.1273 0.8415,-1.568c0.5611,-0.4453 1.2507,-0.6679 2.0689,-0.6679c0.8462,0 1.5124,0.2132 1.9987,0.6398c0.4909,0.4219 0.7433,1.0125 0.7574,1.7719l0,3.6c0,0.736 0.0771,1.2868 0.2314,1.6524l0,0.0844l-0.8977,0zm-2.6369,-0.6047c0.5611,0 1.0613,-0.1359 1.5008,-0.4078c0.4442,-0.2719 0.7668,-0.6352 0.9678,-1.0899l0,-1.6734l-1.5008,0c-0.8369,0.0093 -1.4914,0.164 -1.9636,0.464c-0.4722,0.2953 -0.7083,0.7032 -0.7083,1.2235c0,0.4265 0.1566,0.7805 0.4698,1.0617c0.318,0.2813 0.7294,0.4219 1.2343,0.4219z" id="path3_fill"/>
  <path d="m60.3929,14.0745c0.9631,0 1.7439,0.3165 2.3423,0.9493c0.5985,0.6281 0.8977,1.4625 0.8977,2.5031l0,0.1828c0,0.6891 -0.1379,1.3102 -0.4138,1.8633c-0.2711,0.5485 -0.6639,0.9774 -1.1781,1.2868c-0.5097,0.3047 -1.0964,0.457 -1.7603,0.457c-1.0005,0 -1.8117,-0.3328 -2.4335,-0.9984c-0.6172,-0.6704 -0.9257,-1.5633 -0.9257,-2.679l0,-0.675c0,-1.575 0.2992,-2.8336 0.8976,-3.7758c0.5985,-0.9422 1.4494,-1.5047 2.5528,-1.6875c0.6966,-0.1125 1.1852,-0.2649 1.4657,-0.4571c0.2852,-0.1921 0.4278,-0.4547 0.4278,-0.7875l0.7223,0c0,0.3938 -0.0818,0.7196 -0.2454,0.9774c-0.1637,0.2578 -0.4091,0.4664 -0.7364,0.6258c-0.3273,0.1547 -0.8275,0.2859 -1.5008,0.3937c-0.7714,0.1219 -1.3932,0.4524 -1.8655,0.9914c-0.4675,0.5344 -0.7714,1.2516 -0.9116,2.1516c0.2992,-0.3937 0.6732,-0.7125 1.122,-0.9562c0.4535,-0.2438 0.9678,-0.3657 1.5429,-0.3657zm-2.6299,3.4595l0,0.1757c0,0.8579 0.2314,1.5563 0.6943,2.0954c0.4629,0.5344 1.0707,0.8015 1.8234,0.8015c0.7574,0 1.3652,-0.2695 1.8234,-0.8086c0.4582,-0.5437 0.6872,-1.2562 0.6872,-2.1375l0,-0.1828c0,-0.7922 -0.2337,-1.4391 -0.7013,-1.9406c-0.4628,-0.5016 -1.0706,-0.7524 -1.8233,-0.7524c-0.7528,0 -1.3582,0.2555 -1.8164,0.7664c-0.4582,0.5063 -0.6873,1.1672 -0.6873,1.9829z" id="path4_fill"/>
  <path d="m66.1856,21.1762l-0.8415,0l0,-7.6079l0.8415,0l0,7.6079zm-0.9888,-9.8087c0,-0.1594 0.0514,-0.293 0.1543,-0.4008c0.1029,-0.1125 0.2431,-0.1688 0.4208,-0.1688c0.1776,0 0.3179,0.0563 0.4208,0.1688c0.1075,0.1078 0.1613,0.2414 0.1613,0.4008c0,0.1594 -0.0538,0.293 -0.1613,0.4008c-0.1029,0.1078 -0.2432,0.1617 -0.4208,0.1617c-0.1777,0 -0.3179,-0.0539 -0.4208,-0.1617c-0.1029,-0.1078 -0.1543,-0.2414 -0.1543,-0.4008z" id="path5_fill"/>
  <path d="m74.2997,21.1762l-0.8416,0l0,-3.4876l-4.0885,0l0,3.4876l-0.8416,0l0,-7.6079l0.8416,0l0,3.4102l4.0885,0l0,-3.4102l0.8416,0l0,7.6079z" id="path6_fill"/>
  <path d="m79.4893,21.3168c-0.6452,0 -1.2296,-0.1594 -1.7532,-0.4781c-0.519,-0.3188 -0.9234,-0.7617 -1.2133,-1.3289c-0.2899,-0.5719 -0.4348,-1.2118 -0.4348,-1.9196l0,-0.3023c0,-0.7313 0.1403,-1.3899 0.4208,-1.9758c0.2852,-0.586 0.6802,-1.0454 1.1852,-1.3782c0.5049,-0.3375 1.0519,-0.5062 1.641,-0.5062c0.9211,0 1.6504,0.3164 2.1881,0.9492c0.5423,0.6281 0.8135,1.4883 0.8135,2.5805l0,0.4711l-5.414,0l0,0.1617c0,0.8625 0.2454,1.5821 0.7363,2.1586c0.4956,0.5719 1.1174,0.8578 1.8655,0.8578c0.4488,0 0.8439,-0.082 1.1852,-0.2461c0.346,-0.164 0.6592,-0.4265 0.9397,-0.7875l0.526,0.4008c-0.6171,0.8954 -1.5125,1.343 -2.686,1.343zm-0.1543,-7.1719c-0.6311,0 -1.1641,0.232 -1.5989,0.6961c-0.4302,0.464 -0.692,1.0875 -0.7855,1.8703l4.5515,0l0,-0.0914c-0.0234,-0.7313 -0.2315,-1.3266 -0.6242,-1.786c-0.3927,-0.4594 -0.907,-0.689 -1.5429,-0.689z" id="path7_fill"/>
  <path d="m89.3356,14.2855l-2.7631,0l0,6.8907l-0.8416,0l0,-6.8907l-2.6579,0l0,-0.7172l6.2626,0l0,0.7172z" id="path8_fill"/>
  <path d="m100.841,17.2445c-0.08,1.1015 -0.486,1.9687 -1.2205,2.6016c-0.7293,0.6328 -1.6924,0.9492 -2.8893,0.9492c-1.3091,0 -2.34,-0.4406 -3.0928,-1.3219c-0.748,-0.8859 -1.122,-2.1 -1.122,-3.6422l0,-0.6258c0,-0.9844 0.1729,-1.8516 0.5189,-2.6016c0.346,-0.75 0.8392,-1.3242 1.4798,-1.7227c0.6452,-0.4031 1.3932,-0.6047 2.2441,-0.6047c1.1782,0 2.1273,0.3164 2.8473,0.9493c0.7205,0.6328 1.1365,1.5211 1.2485,2.6648l-2.1041,0c-0.0514,-0.6609 -0.2361,-1.139 -0.554,-1.4344c-0.3133,-0.3 -0.7925,-0.45 -1.4377,-0.45c-0.7013,0 -1.2273,0.2532 -1.5779,0.7594c-0.346,0.5016 -0.5236,1.2821 -0.533,2.3415l0,0.7734c0,1.1063 0.166,1.9149 0.4979,2.4258c0.3367,0.5109 0.865,0.7664 1.585,0.7664c0.6499,0 1.1337,-0.1476 1.4517,-0.443c0.3226,-0.3 0.5072,-0.7617 0.554,-1.3851l2.1041,0z" id="path9_fill"/>
  <path d="m108.387,14.678l-2.434,0l0,5.9767l-2.033,0l0,-5.9767l-2.392,0l0,-1.6312l6.859,0l0,1.6312z" id="path10_fill"/>
  <path d="m112.328,17.7789l1.403,-4.7321l2.174,0l-3.051,8.7891l-0.168,0.4008c-0.454,0.9938 -1.202,1.4907 -2.244,1.4907c-0.295,0 -0.594,-0.0446 -0.898,-0.1336l0,-1.5399l0.309,0.007c0.383,0 0.668,-0.0586 0.855,-0.1757c0.192,-0.1172 0.341,-0.3118 0.449,-0.5836l0.238,-0.6258l-2.658,-7.629l2.181,0l1.41,4.7321z" id="path11_fill"/>
  <path d="m116.417,19.0164c0.458,-0.4875 0.769,-0.9704 0.932,-1.4485c0.164,-0.4781 0.255,-1.1555 0.274,-2.032l0.056,-2.4891l5.582,0l0,5.9696l1.094,0l0,3.9234l-2.026,0l0,-2.2851l-4.496,0l0,2.2851l-2.069,0l0,-3.9234l0.653,0zm2.391,0l2.434,0l0,-4.2891l-1.578,0l-0.014,0.914c-0.042,1.3969 -0.323,2.5219 -0.842,3.3751z" id="path12_fill"/>
  <path d="m128.879,20.7953c-1.113,0 -2.02,-0.3422 -2.721,-1.0266c-0.697,-0.6844 -1.045,-1.5961 -1.045,-2.7352l0,-0.1968c0,-0.7641 0.147,-1.4462 0.442,-2.0462c0.294,-0.6047 0.71,-1.0687 1.248,-1.3922c0.542,-0.3281 1.159,-0.4922 1.851,-0.4922c1.038,0 1.854,0.3282 2.448,0.9844c0.598,0.6563 0.898,1.5868 0.898,2.7915l0,0.8297l-4.832,0c0.065,0.4968 0.261,0.8953 0.589,1.1953c0.332,0.3 0.75,0.45 1.255,0.45c0.781,0 1.391,-0.2836 1.83,-0.8508l0.996,1.118c-0.304,0.4312 -0.715,0.7687 -1.234,1.0125c-0.519,0.2391 -1.094,0.3586 -1.725,0.3586zm-0.232,-6.2438c-0.402,0 -0.729,0.1359 -0.981,0.4078c-0.248,0.2719 -0.407,0.6609 -0.477,1.1672l2.819,0l0,-0.1617c-0.009,-0.45 -0.131,-0.7969 -0.365,-1.0407c-0.234,-0.2484 -0.565,-0.3726 -0.996,-0.3726z" id="path13_fill"/>
  <path d="m139.735,20.6547l-2.034,0l0,-2.9251l-2.517,0l0,2.9251l-2.027,0l0,-7.6079l2.027,0l0,3.0516l2.517,0l0,-3.0516l2.034,0l0,7.6079z" id="path14_fill"/>
  <path d="m147.604,14.678l-2.434,0l0,5.9767l-2.034,0l0,-5.9767l-2.391,0l0,-1.6312l6.859,0l0,1.6312z" id="path15_fill"/>
  <path d="m152.912,20.6547c-0.093,-0.1828 -0.161,-0.4102 -0.203,-0.6821c-0.491,0.5485 -1.129,0.8227 -1.915,0.8227c-0.743,0 -1.36,-0.2156 -1.851,-0.6469c-0.486,-0.4312 -0.729,-0.975 -0.729,-1.6313c0,-0.8062 0.297,-1.425 0.89,-1.8562c0.599,-0.4313 1.461,-0.6493 2.588,-0.6539l0.933,0l0,-0.436c0,-0.3515 -0.091,-0.6328 -0.274,-0.8437c-0.177,-0.211 -0.46,-0.3165 -0.848,-0.3165c-0.342,0 -0.61,0.0821 -0.807,0.2461c-0.191,0.1641 -0.287,0.3891 -0.287,0.6751l-2.027,0c0,-0.4407 0.136,-0.8485 0.407,-1.2235c0.271,-0.375 0.654,-0.668 1.15,-0.8789c0.495,-0.2156 1.052,-0.3235 1.669,-0.3235c0.935,0 1.676,0.2368 2.223,0.7102c0.552,0.4688 0.828,1.1297 0.828,1.9828l0,3.2977c0.004,0.7219 0.105,1.268 0.301,1.6383l0,0.1196l-2.048,0zm-1.676,-1.4133c0.3,0 0.575,-0.0657 0.828,-0.1969c0.252,-0.1359 0.439,-0.3164 0.561,-0.5414l0,-1.3078l-0.758,0c-1.014,0 -1.554,0.3515 -1.62,1.0547l-0.007,0.1195c0,0.2531 0.089,0.4617 0.267,0.6258c0.178,0.164 0.421,0.2461 0.729,0.2461z" id="path16_fill"/>
 </defs>
 <g>
  <title>background</title>
  <rect fill="none" id="canvas_background" height="402" width="582" y="-1" x="-1"/>
 </g>
 <g>
  <title>Layer 1</title>
  <g id="Canvas">
   <g id="logo-hneu-student-s-size">
    <use fill="#ffffff" id="svg_1" x="0.080078" y="0.875977" xlink:href="#path0_fill"/>
    <use fill="#ffffff" id="svg_2" x="0.080078" y="0.875977" xlink:href="#path1_fill"/>
    <use fill="#ffffff" id="svg_3" x="0.080078" y="0.875977" xlink:href="#path2_fill"/>
    <use fill="#ffffff" id="svg_4" x="0.080078" y="0.875977" xlink:href="#path3_fill"/>
    <use fill="#ffffff" id="svg_5" x="0.080078" y="0.875977" xlink:href="#path4_fill"/>
    <use fill="#ffffff" id="svg_6" x="0.080078" y="0.875977" xlink:href="#path5_fill"/>
    <use fill="#ffffff" id="svg_7" x="0.080078" y="0.875977" xlink:href="#path6_fill"/>
    <use fill="#ffffff" id="svg_8" x="0.080078" y="0.875977" xlink:href="#path7_fill"/>
    <use fill="#ffffff" id="svg_9" x="0.080078" y="0.875977" xlink:href="#path8_fill"/>
    <use fill="#ffffff" id="svg_10" x="0.080078" y="0.875977" xlink:href="#path9_fill"/>
    <use fill="#ffffff" id="svg_11" x="0.080078" y="0.875977" xlink:href="#path10_fill"/>
    <use fill="#ffffff" id="svg_12" x="0.080078" y="0.875977" xlink:href="#path11_fill"/>
    <use fill="#ffffff" id="svg_13" x="0.080078" y="0.875977" xlink:href="#path12_fill"/>
    <use fill="#ffffff" id="svg_14" x="0.080078" y="0.875977" xlink:href="#path13_fill"/>
    <use fill="#ffffff" id="svg_15" x="0.080078" y="0.875977" xlink:href="#path14_fill"/>
    <use fill="#ffffff" id="svg_16" x="0.080078" y="0.875977" xlink:href="#path15_fill"/>
    <use fill="#ffffff" id="svg_17" x="0.080078" y="0.875977" xlink:href="#path16_fill"/>
   </g>
  </g>
 </g>
</svg>