<svg width="214" height="72" viewBox="0 0 214 72" version="1.1" xmlns="http://www.w3.org/2000/svg" xmlns:xlink="http://www.w3.org/1999/xlink">
<title>logo-hneu-student-m-size</title>
<desc>Created using Figma</desc>
<g id="Canvas" transform="translate(-3122 688)">
<g id="logo-hneu-student-m-size">
<use xlink:href="#path0_fill" transform="translate(3122.92 -687.805)"/>
<use xlink:href="#path1_fill" transform="translate(3122.92 -687.805)"/>
<use xlink:href="#path2_fill" transform="translate(3122.92 -687.805)"/>
<use xlink:href="#path3_fill" transform="translate(3122.92 -687.805)"/>
<use xlink:href="#path4_fill" transform="translate(3122.92 -687.805)"/>
<use xlink:href="#path5_fill" transform="translate(3122.92 -687.805)"/>
<use xlink:href="#path6_fill" transform="translate(3122.92 -687.805)"/>
<use xlink:href="#path7_fill" transform="translate(3122.92 -687.805)"/>
<use xlink:href="#path8_fill" transform="translate(3122.92 -687.805)"/>
<use xlink:href="#path9_fill" transform="translate(3122.92 -687.805)"/>
<use xlink:href="#path10_fill" transform="translate(3122.92 -687.805)"/>
<use xlink:href="#path11_fill" transform="translate(3122.92 -687.805)"/>
<use xlink:href="#path12_fill" transform="translate(3122.92 -687.805)"/>
<use xlink:href="#path13_fill" transform="translate(3122.92 -687.805)"/>
<use xlink:href="#path14_fill" transform="translate(3122.92 -687.805)"/>
<use xlink:href="#path15_fill" transform="translate(3122.92 -687.805)"/>
<use xlink:href="#path16_fill" transform="translate(3122.92 -687.805)"/>
</g>
</g>
<defs>
<path id="path0_fill" d="M 39.1638 22.8631C 39.1638 24.7611 37.6258 26.2998 35.7286 26.2998C 33.8315 26.2998 32.2935 24.7611 32.2935 22.8631C 32.2935 20.9651 33.8315 19.4264 35.7286 19.4264C 37.6258 19.4264 39.1638 20.9651 39.1638 22.8631Z"/>
<path id="path1_fill" fill-rule="evenodd" d="M 35.8513 71.6126C 55.6514 71.6126 71.7026 55.5816 71.7026 35.8063C 71.7026 16.031 55.6514 0 35.8513 0C 16.0512 0 0 16.031 0 35.8063C 0 55.5816 16.0512 71.6126 35.8513 71.6126ZM 38.9955 13.54C 46.3138 10.0776 53.1262 9.40078 57.3966 12.1333L 48.8863 21.3215C 45.7361 18.2907 42.3649 15.6664 38.9955 13.54ZM 36.0002 11.7798C 38.441 10.491 40.8426 9.47683 43.1203 8.77096C 43.6545 8.60734 44.1904 8.4577 44.7267 8.32314C 43.832 5.40006 40.4294 3.22479 36.3686 3.22479C 32.273 3.22479 28.8471 5.43746 27.9882 8.39837C 28.2988 8.48784 28.6091 8.58224 28.9187 8.68136C 31.1872 9.41588 33.5759 10.4602 36.0002 11.7798ZM 14.2643 12.0834C 18.5455 9.14643 25.5163 9.85344 32.983 13.5021C 29.5277 15.6222 26.0641 18.2576 22.828 21.3151C 22.3081 20.7551 21.7664 20.1653 21.1991 19.5456L 14.2643 12.0834ZM 8.26765 27.9612C 5.43119 28.9334 3.34018 32.2842 3.34018 36.2683C 3.34018 40.0927 5.26682 43.3334 7.93003 44.4471C 8.09968 43.8106 8.29101 43.1747 8.50235 42.5418C 9.23306 40.3768 10.2493 38.1051 11.5196 35.8006C 10.2784 33.4802 9.29081 31.1958 8.58754 29.0217C 8.47468 28.6689 8.36793 28.3153 8.26765 27.9612ZM 13.284 32.8357C 9.67587 25.3199 9.06138 18.333 12.1587 14.1204L 19.6522 21.0906C 20.2662 21.6533 20.851 22.1907 21.4065 22.7069C 18.2339 25.9227 15.4917 29.3805 13.284 32.8357ZM 13.2465 38.7876C 9.90734 45.5241 9.00818 51.8613 11.0967 56.1587C 11.3558 56.6688 11.6465 57.1401 11.9642 57.5659L 21.2142 48.9904C 18.0936 45.7428 15.4044 42.2605 13.2465 38.7876ZM 23.3547 46.9712C 19.8778 43.3766 17.0178 39.5709 14.8603 35.8217C 17.0746 32.0836 19.9983 28.2974 23.5411 24.7332C 27.6318 28.733 29.5944 31.5673 29.5944 35.7774C 29.5944 40.0518 27.5728 42.8889 23.3547 46.9712ZM 22.6234 50.407C 22.1662 50.9008 21.6924 51.4169 21.1991 51.9558L 14.0722 59.6247C 18.3258 62.5306 25.251 61.8925 32.7002 58.3681C 29.2645 56.1998 25.8267 53.5138 22.6234 50.407ZM 35.7165 56.7982C 31.9877 54.6192 28.2091 51.7472 24.644 48.2665C 28.7455 44.0378 31.6017 42.0104 35.8779 42.0104C 40.1487 42.0104 42.9841 44.0312 47.062 48.248C 43.4042 51.7553 39.5302 54.6336 35.7165 56.7982ZM 35.6954 60.1283C 33.2547 61.4171 30.853 62.4312 28.5755 63.1371C 28.3996 63.191 28.2236 63.2433 28.0475 63.2941C 28.9956 66.1586 32.3617 68.2766 36.3686 68.2766C 40.1681 68.2766 43.3913 66.3723 44.5233 63.7329C 43.9401 63.5818 43.3574 63.4126 42.7769 63.2267C 40.5085 62.4922 38.1198 61.4478 35.6954 60.1283ZM 56.5256 60.3713C 52.2042 62.6525 45.6739 61.8076 38.7127 58.406C 42.244 56.2392 45.7842 53.5341 49.0812 50.3903L 57.6565 59.6487C 57.3087 59.9084 56.9306 60.1501 56.5256 60.3713ZM 63.585 44.5216C 66.3449 43.4844 68.3624 40.182 68.3624 36.2683C 68.3624 32.3665 66.357 29.0723 63.6099 28.0246C 63.4813 28.4727 63.3423 28.9202 63.1934 29.3663C 62.4627 31.5314 61.4466 33.8031 60.1762 36.1077C 61.4174 38.428 62.4048 40.7123 63.1081 42.8863C 63.282 43.43 63.4414 43.9756 63.585 44.5216ZM 58.4118 39.0725C 61.9504 46.4435 62.6097 53.3059 59.7119 57.5413L 50.4926 48.9943C 53.5792 45.8373 56.2514 42.4536 58.4118 39.0725ZM 58.4493 33.1207C 59.3477 31.3082 60.0696 29.5246 60.604 27.8019C 60.5694 27.8096 60.5349 27.8177 60.5005 27.8261C 60.5834 27.6712 60.6633 27.5124 60.7402 27.3501C 62.3149 21.9757 62.0342 17.2288 59.5679 14.0981L 52.0504 21.0906C 51.4328 21.6565 50.845 22.1968 50.2866 22.7157C 53.4903 26.0208 56.2466 29.5756 58.4493 33.1207ZM 48.1521 24.7424C 51.7145 28.394 54.639 32.2695 56.8355 36.0865C 54.6625 39.7548 51.8063 43.4696 48.3521 46.9753C 44.1311 42.8908 42.1082 40.0532 42.1082 35.7774C 42.1082 31.5705 44.0677 28.7373 48.1521 24.7424ZM 46.8632 23.4582C 42.8911 27.5356 40.079 29.491 35.8779 29.491C 31.675 29.491 28.8437 27.5324 24.8536 23.4502C 28.4466 20.0379 32.2418 17.2311 35.9793 15.1099C 39.6424 17.2505 43.3536 20.0599 46.8632 23.4582Z"/>
<path id="path2_fill" d="M 88.3776 23.3109L 85.4465 23.3109L 85.4465 33.3082L 83.6438 33.3082L 83.6438 11.9962L 85.4465 11.9962L 85.4465 21.7739L 88.2897 21.7739L 96.5409 11.9962L 98.8125 11.9962L 90.0484 22.4765L 99.4574 33.3082L 97.2151 33.3082L 88.3776 23.3109Z"/>
<path id="path3_fill" d="M 112.34 33.3082C 112.164 32.8105 112.052 32.0738 112.003 31.098C 111.387 31.8981 110.601 32.5178 109.643 32.9569C 108.695 33.3863 107.689 33.6009 106.624 33.6009C 105.1 33.6009 103.864 33.1765 102.916 32.3275C 101.978 31.4785 101.509 30.4051 101.509 29.1073C 101.509 27.5655 102.149 26.3457 103.429 25.4479C 104.719 24.5502 106.512 24.1013 108.808 24.1013L 111.988 24.1013L 111.988 22.3009C 111.988 21.1689 111.636 20.2809 110.933 19.6369C 110.239 18.9831 109.223 18.6562 107.884 18.6562C 106.663 18.6562 105.652 18.9684 104.851 19.593C 104.05 20.2175 103.649 20.9689 103.649 21.8471L 101.89 21.8325C 101.89 20.5737 102.477 19.4856 103.649 18.5683C 104.821 17.6413 106.263 17.1778 107.972 17.1778C 109.741 17.1778 111.133 17.6218 112.149 18.5098C 113.175 19.388 113.703 20.6176 113.732 22.1984L 113.732 29.6928C 113.732 31.2248 113.893 32.3714 114.216 33.1326L 114.216 33.3082L 112.34 33.3082ZM 106.829 32.0494C 108.002 32.0494 109.047 31.7664 109.966 31.2004C 110.894 30.6344 111.568 29.8782 111.988 28.9316L 111.988 25.4479L 108.852 25.4479C 107.103 25.4674 105.735 25.7895 104.748 26.414C 103.761 27.0288 103.268 27.8777 103.268 28.9609C 103.268 29.8489 103.595 30.5856 104.25 31.1711C 104.914 31.7566 105.774 32.0494 106.829 32.0494Z"/>
<path id="path4_fill" d="M 124.812 18.5244C 126.825 18.5244 128.456 19.1831 129.707 20.5005C 130.958 21.8081 131.583 23.5451 131.583 25.7114L 131.583 26.092C 131.583 27.5264 131.295 28.8194 130.718 29.9709C 130.152 31.1126 129.331 32.0055 128.256 32.6495C 127.191 33.2838 125.965 33.6009 124.577 33.6009C 122.487 33.6009 120.791 32.9081 119.492 31.5224C 118.202 30.127 117.557 28.2681 117.557 25.9456L 117.557 24.5404C 117.557 21.2616 118.183 18.6415 119.433 16.6801C 120.684 14.7187 122.462 13.5477 124.768 13.1671C 126.224 12.933 127.245 12.6158 127.831 12.2157C 128.427 11.8156 128.725 11.2692 128.725 10.5763L 130.235 10.5763C 130.235 11.396 130.064 12.0742 129.722 12.6109C 129.38 13.1476 128.867 13.5819 128.183 13.9137C 127.499 14.2357 126.453 14.5089 125.046 14.7333C 123.434 14.9871 122.135 15.675 121.148 16.7972C 120.171 17.9097 119.536 19.4027 119.243 21.2763C 119.868 20.4566 120.65 19.793 121.588 19.2856C 122.535 18.7782 123.61 18.5244 124.812 18.5244ZM 119.316 25.726L 119.316 26.092C 119.316 27.8777 119.8 29.3317 120.767 30.4539C 121.734 31.5664 123.004 32.1226 124.577 32.1226C 126.16 32.1226 127.43 31.5615 128.388 30.4393C 129.345 29.3073 129.824 27.8241 129.824 25.9895L 129.824 25.6089C 129.824 23.9598 129.336 22.6131 128.359 21.569C 127.391 20.5249 126.121 20.0028 124.548 20.0028C 122.975 20.0028 121.71 20.5346 120.752 21.5983C 119.795 22.6522 119.316 24.0281 119.316 25.726Z"/>
<path id="path5_fill" d="M 136.918 33.3082L 135.159 33.3082L 135.159 17.4705L 136.918 17.4705L 136.918 33.3082ZM 134.851 12.889C 134.851 12.5573 134.959 12.2791 135.174 12.0547C 135.389 11.8205 135.682 11.7034 136.053 11.7034C 136.424 11.7034 136.717 11.8205 136.932 12.0547C 137.157 12.2791 137.269 12.5573 137.269 12.889C 137.269 13.2208 137.157 13.4989 136.932 13.7234C 136.717 13.9478 136.424 14.06 136.053 14.06C 135.682 14.06 135.389 13.9478 135.174 13.7234C 134.959 13.4989 134.851 13.2208 134.851 12.889Z"/>
<path id="path6_fill" d="M 153.874 33.3082L 152.116 33.3082L 152.116 26.0481L 143.571 26.0481L 143.571 33.3082L 141.813 33.3082L 141.813 17.4705L 143.571 17.4705L 143.571 24.5697L 152.116 24.5697L 152.116 17.4705L 153.874 17.4705L 153.874 33.3082Z"/>
<path id="path7_fill" d="M 164.72 33.6009C 163.371 33.6009 162.15 33.2692 161.056 32.6056C 159.971 31.942 159.126 31.0199 158.52 29.8391C 157.914 28.6486 157.612 27.3166 157.612 25.8431L 157.612 25.2137C 157.612 23.6914 157.905 22.3204 158.491 21.1006C 159.087 19.8808 159.913 18.9245 160.968 18.2317C 162.023 17.5291 163.166 17.1778 164.397 17.1778C 166.322 17.1778 167.846 17.8365 168.97 19.1538C 170.103 20.4614 170.67 22.2521 170.67 24.5258L 170.67 25.5065L 159.356 25.5065L 159.356 25.8431C 159.356 27.6387 159.869 29.1365 160.894 30.3368C 161.93 31.5273 163.23 32.1226 164.793 32.1226C 165.731 32.1226 166.556 31.9518 167.27 31.6103C 167.993 31.2687 168.647 30.7223 169.234 29.9709L 170.333 30.8052C 169.043 32.669 167.172 33.6009 164.72 33.6009ZM 164.397 18.6708C 163.078 18.6708 161.964 19.1538 161.056 20.1199C 160.157 21.086 159.61 22.3838 159.414 24.0135L 168.926 24.0135L 168.926 23.8232C 168.877 22.3009 168.442 21.0616 167.621 20.1053C 166.801 19.149 165.726 18.6708 164.397 18.6708Z"/>
<path id="path8_fill" d="M 185.296 18.9636L 179.522 18.9636L 179.522 33.3082L 177.763 33.3082L 177.763 18.9636L 172.209 18.9636L 172.209 17.4705L 185.296 17.4705L 185.296 18.9636Z"/>
<path id="path9_fill" d="M 99.5307 51.1902C 99.3646 53.4834 98.5145 55.2887 96.9806 56.6061C 95.4564 57.9234 93.4436 58.5821 90.9424 58.5821C 88.2066 58.5821 86.0522 57.6648 84.4792 55.8303C 82.9159 53.986 82.1343 51.4586 82.1343 48.2481L 82.1343 46.9454C 82.1343 44.8961 82.4958 43.0909 83.2188 41.5295C 83.9418 39.9682 84.9726 38.7728 86.3112 37.9434C 87.6595 37.1042 89.2228 36.6846 91.001 36.6846C 93.4632 36.6846 95.4466 37.3432 96.9513 38.6606C 98.4559 39.978 99.3255 41.8272 99.56 44.2082L 95.1633 44.2082C 95.0558 42.8323 94.6699 41.8369 94.0055 41.2222C 93.3508 40.5976 92.3493 40.2854 91.001 40.2854C 89.5354 40.2854 88.4363 40.8123 87.7035 41.8662C 86.9804 42.9103 86.6092 44.5351 86.5896 46.7404L 86.5896 48.3506C 86.5896 50.6535 86.9365 52.3368 87.6302 53.4005C 88.3337 54.4641 89.4377 54.9959 90.9424 54.9959C 92.3005 54.9959 93.3117 54.6886 93.9761 54.0738C 94.6503 53.4493 95.0362 52.4881 95.1339 51.1902L 99.5307 51.1902Z"/>
<path id="path10_fill" d="M 115.3 45.8476L 110.215 45.8476L 110.215 58.2894L 105.965 58.2894L 105.965 45.8476L 100.967 45.8476L 100.967 42.4517L 115.3 42.4517L 115.3 45.8476Z"/>
<path id="path11_fill" d="M 123.537 52.3027L 126.468 42.4517L 131.011 42.4517L 124.636 60.7484L 124.284 61.5828C 123.337 63.6515 121.773 64.6859 119.594 64.6859C 118.979 64.6859 118.354 64.5932 117.719 64.4078L 117.719 61.2022L 118.363 61.2168C 119.165 61.2168 119.761 61.0949 120.151 60.8509C 120.552 60.6069 120.865 60.202 121.089 59.636L 121.588 58.3333L 116.033 42.4517L 120.591 42.4517L 123.537 52.3027Z"/>
<path id="path12_fill" d="M 132.081 54.8788C 133.039 53.864 133.688 52.8589 134.03 51.8635C 134.372 50.8682 134.563 49.4581 134.602 47.6333L 134.719 42.4517L 146.385 42.4517L 146.385 54.8788L 148.672 54.8788L 148.672 63.0465L 144.436 63.0465L 144.436 58.2894L 135.042 58.2894L 135.042 63.0465L 130.718 63.0465L 130.718 54.8788L 132.081 54.8788ZM 137.079 54.8788L 142.164 54.8788L 142.164 45.95L 138.867 45.95L 138.837 47.8529C 138.75 50.7609 138.163 53.1028 137.079 54.8788Z"/>
<path id="path13_fill" d="M 158.125 58.5821C 155.799 58.5821 153.904 57.8697 152.438 56.445C 150.982 55.0203 150.254 53.1224 150.254 50.7511L 150.254 50.3412C 150.254 48.7507 150.562 47.3308 151.178 46.0818C 151.793 44.8229 152.663 43.8569 153.786 43.1836C 154.92 42.5005 156.209 42.1589 157.656 42.1589C 159.825 42.1589 161.53 42.842 162.77 44.2082C 164.021 45.5743 164.646 47.5114 164.646 50.0192L 164.646 51.7464L 154.548 51.7464C 154.685 52.7808 155.096 53.6103 155.78 54.2348C 156.473 54.8593 157.348 55.1716 158.403 55.1716C 160.035 55.1716 161.31 54.5812 162.228 53.4005L 164.309 55.7278C 163.674 56.6256 162.814 57.3282 161.73 57.8356C 160.645 58.3333 159.444 58.5821 158.125 58.5821ZM 157.641 45.5841C 156.801 45.5841 156.117 45.8671 155.589 46.4331C 155.071 46.999 154.739 47.809 154.592 48.8629L 160.484 48.8629L 160.484 48.5262C 160.465 47.5894 160.211 46.8673 159.722 46.3599C 159.233 45.8427 158.54 45.5841 157.641 45.5841Z"/>
<path id="path14_fill" d="M 180.812 58.2894L 176.561 58.2894L 176.561 52.2002L 171.3 52.2002L 171.3 58.2894L 167.065 58.2894L 167.065 42.4517L 171.3 42.4517L 171.3 48.8043L 176.561 48.8043L 176.561 42.4517L 180.812 42.4517L 180.812 58.2894Z"/>
<path id="path15_fill" d="M 197.255 45.8476L 192.17 45.8476L 192.17 58.2894L 187.92 58.2894L 187.92 45.8476L 182.922 45.8476L 182.922 42.4517L 197.255 42.4517L 197.255 45.8476Z"/>
<path id="path16_fill" d="M 208.35 58.2894C 208.154 57.9088 208.013 57.4355 207.925 56.8695C 206.899 58.0112 205.565 58.5821 203.924 58.5821C 202.37 58.5821 201.081 58.1332 200.055 57.2355C 199.039 56.3377 198.531 55.2057 198.531 53.8396C 198.531 52.1612 199.151 50.8731 200.392 49.9753C 201.642 49.0776 203.445 48.6238 205.8 48.614L 207.749 48.614L 207.749 47.7065C 207.749 46.9746 207.558 46.3892 207.177 45.95C 206.806 45.5109 206.215 45.2913 205.404 45.2913C 204.691 45.2913 204.129 45.4621 203.719 45.8037C 203.318 46.1452 203.118 46.6136 203.118 47.2088L 198.882 47.2088C 198.882 46.2916 199.166 45.4426 199.732 44.6619C 200.299 43.8813 201.1 43.2714 202.136 42.8323C 203.171 42.3834 204.334 42.1589 205.624 42.1589C 207.578 42.1589 209.127 42.6517 210.27 43.6373C 211.423 44.6131 211.999 45.9891 211.999 47.7651L 211.999 54.63C 212.009 56.1328 212.219 57.2696 212.629 58.0405L 212.629 58.2894L 208.35 58.2894ZM 204.847 55.3472C 205.472 55.3472 206.049 55.2106 206.577 54.9374C 207.104 54.6544 207.495 54.2787 207.749 53.8103L 207.749 51.0878L 206.166 51.0878C 204.046 51.0878 202.917 51.8196 202.781 53.2834L 202.766 53.5322C 202.766 54.0591 202.952 54.4934 203.323 54.8349C 203.694 55.1765 204.202 55.3472 204.847 55.3472Z"/>
</defs>
</svg>
