<svg width="32" height="32" xmlns="http://www.w3.org/2000/svg" xmlns:xlink="http://www.w3.org/1999/xlink">
 <title>logo-hneu-student-l-size</title>
 <desc>Created using Figma</desc>
 <defs>
  <path id="path0_fill" d="m81.7969,47.7727c0,3.966 -3.2122,7.1811 -7.1746,7.1811c-3.9624,0 -7.1746,-3.2151 -7.1746,-7.1811c0,-3.9659 3.2122,-7.181 7.1746,-7.181c3.9624,0 7.1746,3.2151 7.1746,7.181z"/>
  <path id="path1_fill" fill-rule="evenodd" d="m74.8785,149.636c41.3545,0 74.8785,-33.497 74.8785,-74.8182c0,-41.3207 -33.524,-74.8178 -74.8785,-74.8178c-41.3542,0 -74.8785,33.4971 -74.8785,74.8178c0,41.3212 33.5243,74.8182 74.8785,74.8182zm6.5671,-121.344c15.2847,-7.2348 29.5134,-8.6489 38.4324,-2.9393l-17.775,19.1988c-6.5793,-6.3329 -13.6202,-11.8163 -20.6574,-16.2595zm-6.256,-3.6779c5.0976,-2.693 10.1137,-4.8121 14.8709,-6.2871c1.1157,-0.3418 2.235,-0.6545 3.355,-0.9357c-1.8687,-6.1078 -8.9752,-10.65305 -17.4565,-10.65305c-8.5541,0 -15.7094,4.62335 -17.5033,10.81025c0.6489,0.187 1.297,0.3842 1.9436,0.5913c4.7378,1.5348 9.7269,3.717 14.7903,6.4743zm-45.3974,0.6344c8.9417,-6.1369 23.5008,-4.6596 39.0956,2.9642c-7.2166,4.4301 -14.4508,9.9368 -21.2095,16.3255c-1.086,-1.1702 -2.2172,-2.4026 -3.4021,-3.6973l-14.484,-15.5924zm-12.5245,33.1768c-5.9242,2.0315 -10.29144,9.0329 -10.29144,17.3579c0,7.991 4.02394,14.7626 9.58634,17.0897c0.3543,-1.33 0.7539,-2.6587 1.1953,-3.9813c1.5261,-4.5238 3.6486,-9.2706 6.3018,-14.0858c-2.5924,-4.8484 -4.655,-9.6217 -6.1239,-14.1644c-0.2357,-0.7373 -0.4587,-1.4762 -0.6681,-2.2161zm10.4771,10.1853c-7.5359,-15.7043 -8.8193,-30.3035 -2.3504,-39.1058l15.6509,14.5642c1.2824,1.1758 2.5037,2.2988 3.6641,3.3774c-6.6264,6.7194 -12.3536,13.9446 -16.9646,21.1642zm-0.0783,12.4365c-6.9742,14.0762 -8.8521,27.3179 -4.4901,36.2969c0.5412,1.066 1.1483,2.051 1.8119,2.941l19.3194,-17.919c-6.5177,-6.7858 -12.1343,-14.0621 -16.6412,-21.3189zm21.1118,17.1c-7.2619,-7.5111 -13.2351,-15.4632 -17.7412,-23.2972c4.6247,-7.8107 10.7311,-15.7222 18.1306,-23.1694c8.5436,8.3575 12.6428,14.2799 12.6428,23.0768c0,8.9315 -4.2223,14.8596 -13.0322,23.3898zm-1.5274,7.1789c-0.9548,1.032 -1.9445,2.11 -2.9747,3.236l-14.8851,16.025c8.8839,6.072 23.3479,4.738 38.9061,-2.626c-7.1758,-4.531 -14.3559,-10.143 -21.0463,-16.635zm27.3461,13.355c-7.7879,-4.553 -15.6799,-10.555 -23.1259,-17.827c8.5663,-8.8363 14.5318,-13.0726 23.463,-13.0726c8.9199,0 14.8419,4.2225 23.3589,13.0336c-7.6395,7.328 -15.7307,13.343 -23.696,17.866zm-0.044,6.958c-5.0977,2.693 -10.1138,4.812 -14.8706,6.287c-0.3674,0.112 -0.735,0.222 -1.1028,0.328c1.9803,5.985 9.0105,10.411 17.3794,10.411c7.9356,0 14.6675,-3.979 17.0317,-9.494c-1.2179,-0.316 -2.435,-0.67 -3.6474,-1.058c-4.7378,-1.535 -9.7269,-3.717 -14.7903,-6.474zm43.506,0.508c-9.026,4.766 -22.6652,3.001 -37.2042,-4.107c7.3755,-4.527 14.7695,-10.18 21.6552,-16.749l17.911,19.346c-0.727,0.543 -1.517,1.048 -2.362,1.51zm14.744,-33.1185c5.764,-2.1673 9.978,-9.0677 9.978,-17.2453c0,-8.1529 -4.189,-15.0363 -9.926,-17.2255c-0.269,0.9364 -0.559,1.8715 -0.87,2.8036c-1.526,4.5239 -3.648,9.2708 -6.302,14.0862c2.593,4.8483 4.655,9.6214 6.124,14.1641c0.363,1.1359 0.696,2.276 0.996,3.4169zm-10.805,-11.386c7.391,15.4019 8.768,29.7405 2.715,38.5905l-19.255,-17.859c6.447,-6.5962 12.028,-13.6666 16.54,-20.7315zm0.078,-12.4364c1.877,-3.7872 3.384,-7.514 4.501,-11.1136c-0.073,0.0161 -0.145,0.0329 -0.217,0.0506c0.174,-0.3237 0.341,-0.6555 0.501,-0.9947c3.289,-11.2299 2.703,-21.1487 -2.448,-27.6902l-15.701,14.6108c-1.29,1.1825 -2.518,2.3116 -3.684,3.3958c6.691,6.906 12.448,14.3339 17.048,21.7413zm-21.506,-17.5066c7.44,7.6302 13.548,15.7282 18.136,23.7037c-4.539,7.665 -10.504,15.4271 -17.719,22.7524c-8.8154,-8.5346 -13.0405,-14.4638 -13.0405,-23.3983c0,-8.7903 4.0928,-14.7103 12.6235,-23.0578zm-2.6921,-2.6833c-8.2961,8.5198 -14.1695,12.6057 -22.9438,12.6057c-8.7781,0 -14.6915,-4.0926 -23.0251,-12.6223c7.5041,-7.1302 15.4309,-12.995 23.2368,-17.4273c7.6507,4.4729 15.4019,10.3432 22.7321,17.4439z"/>
 </defs>
 <g>
  <title>background</title>
  <rect x="-1" y="-1" width="34" height="34" id="canvas_background" fill="none"/>
 </g>
 <g>
  <title>Layer 1</title>
  <g stroke="null" id="Canvas">
   <g stroke="null" id="logo-hneu-student-l-size">
    <use transform="matrix(0.21127130676333375,0,0,0.21127130676333375,0,0) " xlink:href="#path0_fill" y="0.928088" x="0.928088" id="svg_1" fill="#ffffff"/>
    <use transform="matrix(0.21127130676333375,0,0,0.21127130676333375,0,0) " xlink:href="#path1_fill" y="0.928088" x="0.928088" id="svg_2" fill="#ffffff"/>
   </g>
  </g>
 </g>
</svg>