<svg width="214" height="72" xmlns="http://www.w3.org/2000/svg" xmlns:xlink="http://www.w3.org/1999/xlink">
 <title>logo-hneu-student-m-size</title>
 <desc>Created using Figma</desc>
 <defs>
  <path d="m39.1638,22.8631c0,1.898 -1.538,3.4367 -3.4352,3.4367c-1.8971,0 -3.4351,-1.5387 -3.4351,-3.4367c0,-1.898 1.538,-3.4367 3.4351,-3.4367c1.8972,0 3.4352,1.5387 3.4352,3.4367z" id="path0_fill"/>
  <path d="m35.8513,71.6126c19.8001,0 35.8513,-16.031 35.8513,-35.8063c0,-19.7753 -16.0512,-35.8063 -35.8513,-35.8063c-19.8001,0 -35.8513,16.031 -35.8513,35.8063c0,19.7753 16.0512,35.8063 35.8513,35.8063zm3.1442,-58.0726c7.3183,-3.4624 14.1307,-4.13922 18.4011,-1.4067l-8.5103,9.1882c-3.1502,-3.0308 -6.5214,-5.6551 -9.8908,-7.7815zm-2.9953,-1.7602c2.4408,-1.2888 4.8424,-2.30297 7.1201,-3.00884c0.5342,-0.16362 1.0701,-0.31326 1.6064,-0.44782c-0.8947,-2.92308 -4.2973,-5.09835 -8.3581,-5.09835c-4.0956,0 -7.5215,2.21267 -8.3804,5.17358c0.3106,0.08947 0.6209,0.18387 0.9305,0.28299c2.2685,0.73452 4.6572,1.77884 7.0815,3.09844zm-21.7359,0.3036c4.2812,-2.93697 11.252,-2.22996 18.7187,1.4187c-3.4553,2.1201 -6.9189,4.7555 -10.155,7.813c-0.5199,-0.56 -1.0616,-1.1498 -1.6289,-1.7695l-6.9348,-7.4622zm-5.99665,15.8778c-2.83646,0.9722 -4.92747,4.323 -4.92747,8.3071c0,3.8244 1.92664,7.0651 4.58985,8.1788c0.16965,-0.6365 0.36098,-1.2724 0.57232,-1.9053c0.73071,-2.165 1.74695,-4.4367 3.01725,-6.7412c-1.2412,-2.3204 -2.22879,-4.6048 -2.93206,-6.7789c-0.11286,-0.3528 -0.21961,-0.7064 -0.31989,-1.0605zm5.01635,4.8745c-3.60813,-7.5158 -4.22262,-14.5027 -1.1253,-18.7153l7.4935,6.9702c0.614,0.5627 1.1988,1.1001 1.7543,1.6163c-3.1726,3.2158 -5.9148,6.6736 -8.1225,10.1288zm-0.0375,5.9519c-3.33916,6.7365 -4.23832,13.0737 -2.1498,17.3711c0.2591,0.5101 0.5498,0.9814 0.8675,1.4072l9.25,-8.5755c-3.1206,-3.2476 -5.8098,-6.7299 -7.9677,-10.2028zm10.1082,8.1836c-3.4769,-3.5946 -6.3369,-7.4003 -8.4944,-11.1495c2.2143,-3.7381 5.138,-7.5243 8.6808,-11.0885c4.0907,3.9998 6.0533,6.8341 6.0533,11.0442c0,4.2744 -2.0216,7.1115 -6.2397,11.1938zm-0.7313,3.4358c-0.4572,0.4938 -0.931,1.0099 -1.4243,1.5488l-7.1269,7.6689c4.2536,2.9059 11.1788,2.2678 18.628,-1.2566c-3.4357,-2.1683 -6.8735,-4.8543 -10.0768,-7.9611zm13.0931,6.3912c-3.7288,-2.179 -7.5074,-5.051 -11.0725,-8.5317c4.1015,-4.2287 6.9577,-6.2561 11.2339,-6.2561c4.2708,0 7.1062,2.0208 11.1841,6.2376c-3.6578,3.5073 -7.5318,6.3856 -11.3455,8.5502zm-0.0211,3.3301c-2.4407,1.2888 -4.8424,2.3029 -7.1199,3.0088c-0.1759,0.0539 -0.3519,0.1062 -0.528,0.157c0.9481,2.8645 4.3142,4.9825 8.3211,4.9825c3.7995,0 7.0227,-1.9043 8.1547,-4.5437c-0.5832,-0.1511 -1.1659,-0.3203 -1.7464,-0.5062c-2.2684,-0.7345 -4.6571,-1.7789 -7.0815,-3.0984zm20.8302,0.243c-4.3214,2.2812 -10.8517,1.4363 -17.8129,-1.9653c3.5313,-2.1668 7.0715,-4.8719 10.3685,-8.0157l8.5753,9.2584c-0.3478,0.2597 -0.7259,0.5014 -1.1309,0.7226zm7.0594,-15.8497c2.7599,-1.0372 4.7774,-4.3396 4.7774,-8.2533c0,-3.9018 -2.0054,-7.196 -4.7525,-8.2437c-0.1286,0.4481 -0.2676,0.8956 -0.4165,1.3417c-0.7307,2.1651 -1.7468,4.4368 -3.0172,6.7414c1.2412,2.3203 2.2286,4.6046 2.9319,6.7786c0.1739,0.5437 0.3333,1.0893 0.4769,1.6353zm-5.1732,-5.4491c3.5386,7.371 4.1979,14.2334 1.3001,18.4688l-9.2193,-8.547c3.0866,-3.157 5.7588,-6.5407 7.9192,-9.9218zm0.0375,-5.9518c0.8984,-1.8125 1.6203,-3.5961 2.1547,-5.3188c-0.0346,0.0077 -0.0691,0.0158 -0.1035,0.0242c0.0829,-0.1549 0.1628,-0.3137 0.2397,-0.476c1.5747,-5.3744 1.294,-10.1213 -1.1723,-13.252l-7.5175,6.9925c-0.6176,0.5659 -1.2054,1.1062 -1.7638,1.6251c3.2037,3.3051 5.96,6.8599 8.1627,10.405zm-10.2972,-8.3783c3.5624,3.6516 6.4869,7.5271 8.6834,11.3441c-2.173,3.6683 -5.0292,7.3831 -8.4834,10.8888c-4.221,-4.0845 -6.2439,-6.9221 -6.2439,-11.1979c0,-4.2069 1.9595,-7.0401 6.0439,-11.035zm-1.2889,-1.2842c-3.9721,4.0774 -6.7842,6.0328 -10.9853,6.0328c-4.2029,0 -7.0342,-1.9586 -11.0243,-6.0408c3.593,-3.4123 7.3882,-6.2191 11.1257,-8.3403c3.6631,2.1406 7.3743,4.95 10.8839,8.3483z" fill-rule="evenodd" id="path1_fill"/>
  <path d="m88.3776,23.3109l-2.9311,0l0,9.9973l-1.8027,0l0,-21.312l1.8027,0l0,9.7777l2.8432,0l8.2512,-9.7777l2.2716,0l-8.7641,10.4803l9.409,10.8317l-2.2423,0l-8.8375,-9.9973z" id="path2_fill"/>
  <path d="m112.34,33.3082c-0.176,-0.4977 -0.288,-1.2344 -0.337,-2.2102c-0.616,0.8001 -1.402,1.4198 -2.36,1.8589c-0.948,0.4294 -1.954,0.644 -3.019,0.644c-1.524,0 -2.76,-0.4244 -3.708,-1.2734c-0.938,-0.849 -1.407,-1.9224 -1.407,-3.2202c0,-1.5418 0.64,-2.7616 1.92,-3.6594c1.29,-0.8977 3.083,-1.3466 5.379,-1.3466l3.18,0l0,-1.8004c0,-1.132 -0.352,-2.02 -1.055,-2.664c-0.694,-0.6538 -1.71,-0.9807 -3.049,-0.9807c-1.221,0 -2.232,0.3122 -3.033,0.9368c-0.801,0.6245 -1.202,1.3759 -1.202,2.2541l-1.759,-0.0146c0,-1.2588 0.587,-2.3469 1.759,-3.2642c1.172,-0.927 2.614,-1.3905 4.323,-1.3905c1.769,0 3.161,0.444 4.177,1.332c1.026,0.8782 1.554,2.1078 1.583,3.6886l0,7.4944c0,1.532 0.161,2.6786 0.484,3.4398l0,0.1756l-1.876,0zm-5.511,-1.2588c1.173,0 2.218,-0.283 3.137,-0.849c0.928,-0.566 1.602,-1.3222 2.022,-2.2688l0,-3.4837l-3.136,0c-1.749,0.0195 -3.117,0.3416 -4.104,0.9661c-0.987,0.6148 -1.48,1.4637 -1.48,2.5469c0,0.888 0.327,1.6247 0.982,2.2102c0.664,0.5855 1.524,0.8783 2.579,0.8783z" id="path3_fill"/>
  <path d="m124.812,18.5244c2.013,0 3.644,0.6587 4.895,1.9761c1.251,1.3076 1.876,3.0446 1.876,5.2109l0,0.3806c0,1.4344 -0.288,2.7274 -0.865,3.8789c-0.566,1.1417 -1.387,2.0346 -2.462,2.6786c-1.065,0.6343 -2.291,0.9514 -3.679,0.9514c-2.09,0 -3.786,-0.6928 -5.085,-2.0785c-1.29,-1.3954 -1.935,-3.2543 -1.935,-5.5768l0,-1.4052c0,-3.2788 0.626,-5.8989 1.876,-7.8603c1.251,-1.9614 3.029,-3.1324 5.335,-3.513c1.456,-0.2341 2.477,-0.5513 3.063,-0.9514c0.596,-0.4001 0.894,-0.9465 0.894,-1.6394l1.51,0c0,0.8197 -0.171,1.4979 -0.513,2.0346c-0.342,0.5367 -0.855,0.971 -1.539,1.3028c-0.684,0.322 -1.73,0.5952 -3.137,0.8196c-1.612,0.2538 -2.911,0.9417 -3.898,2.0639c-0.977,1.1125 -1.612,2.6055 -1.905,4.4791c0.625,-0.8197 1.407,-1.4833 2.345,-1.9907c0.947,-0.5074 2.022,-0.7612 3.224,-0.7612zm-5.496,7.2016l0,0.366c0,1.7857 0.484,3.2397 1.451,4.3619c0.967,1.1125 2.237,1.6687 3.81,1.6687c1.583,0 2.853,-0.5611 3.811,-1.6833c0.957,-1.132 1.436,-2.6152 1.436,-4.4498l0,-0.3806c0,-1.6491 -0.488,-2.9958 -1.465,-4.0399c-0.968,-1.0441 -2.238,-1.5662 -3.811,-1.5662c-1.573,0 -2.838,0.5318 -3.796,1.5955c-0.957,1.0539 -1.436,2.4298 -1.436,4.1277z" id="path4_fill"/>
  <path d="m136.918,33.3082l-1.759,0l0,-15.8377l1.759,0l0,15.8377zm-2.067,-20.4192c0,-0.3317 0.108,-0.6099 0.323,-0.8343c0.215,-0.2342 0.508,-0.3513 0.879,-0.3513c0.371,0 0.664,0.1171 0.879,0.3513c0.225,0.2244 0.337,0.5026 0.337,0.8343c0,0.3318 -0.112,0.6099 -0.337,0.8344c-0.215,0.2244 -0.508,0.3366 -0.879,0.3366c-0.371,0 -0.664,-0.1122 -0.879,-0.3366c-0.215,-0.2245 -0.323,-0.5026 -0.323,-0.8344z" id="path5_fill"/>
  <path d="m153.874,33.3082l-1.758,0l0,-7.2601l-8.545,0l0,7.2601l-1.758,0l0,-15.8377l1.758,0l0,7.0992l8.545,0l0,-7.0992l1.758,0l0,15.8377z" id="path6_fill"/>
  <path d="m164.72,33.6009c-1.349,0 -2.57,-0.3317 -3.664,-0.9953c-1.085,-0.6636 -1.93,-1.5857 -2.536,-2.7665c-0.606,-1.1905 -0.908,-2.5225 -0.908,-3.996l0,-0.6294c0,-1.5223 0.293,-2.8933 0.879,-4.1131c0.596,-1.2198 1.422,-2.1761 2.477,-2.8689c1.055,-0.7026 2.198,-1.0539 3.429,-1.0539c1.925,0 3.449,0.6587 4.573,1.976c1.133,1.3076 1.7,3.0983 1.7,5.372l0,0.9807l-11.314,0l0,0.3366c0,1.7956 0.513,3.2934 1.538,4.4937c1.036,1.1905 2.336,1.7858 3.899,1.7858c0.938,0 1.763,-0.1708 2.477,-0.5123c0.723,-0.3416 1.377,-0.888 1.964,-1.6394l1.099,0.8343c-1.29,1.8638 -3.161,2.7957 -5.613,2.7957zm-0.323,-14.9301c-1.319,0 -2.433,0.483 -3.341,1.4491c-0.899,0.9661 -1.446,2.2639 -1.642,3.8936l9.512,0l0,-0.1903c-0.049,-1.5223 -0.484,-2.7616 -1.305,-3.7179c-0.82,-0.9563 -1.895,-1.4345 -3.224,-1.4345z" id="path7_fill"/>
  <path d="m185.296,18.9636l-5.774,0l0,14.3446l-1.759,0l0,-14.3446l-5.554,0l0,-1.4931l13.087,0l0,1.4931z" id="path8_fill"/>
  <path d="m99.5307,51.1902c-0.1661,2.2932 -1.0162,4.0985 -2.5501,5.4159c-1.5242,1.3173 -3.537,1.976 -6.0382,1.976c-2.7358,0 -4.8902,-0.9173 -6.4632,-2.7518c-1.5633,-1.8443 -2.3449,-4.3717 -2.3449,-7.5822l0,-1.3027c0,-2.0493 0.3615,-3.8545 1.0845,-5.4159c0.723,-1.5613 1.7538,-2.7567 3.0924,-3.5861c1.3483,-0.8392 2.9116,-1.2588 4.6898,-1.2588c2.4622,0 4.4456,0.6586 5.9503,1.976c1.5046,1.3174 2.3742,3.1666 2.6087,5.5476l-4.3967,0c-0.1075,-1.3759 -0.4934,-2.3713 -1.1578,-2.986c-0.6547,-0.6246 -1.6562,-0.9368 -3.0045,-0.9368c-1.4656,0 -2.5647,0.5269 -3.2975,1.5808c-0.7231,1.0441 -1.0943,2.6689 -1.1139,4.8742l0,1.6102c0,2.3029 0.3469,3.9862 1.0406,5.0499c0.7035,1.0636 1.8075,1.5954 3.3122,1.5954c1.3581,0 2.3693,-0.3073 3.0337,-0.9221c0.6742,-0.6245 1.0601,-1.5857 1.1578,-2.8836l4.3968,0z" id="path9_fill"/>
  <path d="m115.3,45.8476l-5.085,0l0,12.4418l-4.25,0l0,-12.4418l-4.998,0l0,-3.3959l14.333,0l0,3.3959z" id="path10_fill"/>
  <path d="m123.537,52.3027l2.931,-9.851l4.543,0l-6.375,18.2967l-0.352,0.8344c-0.947,2.0687 -2.511,3.1031 -4.69,3.1031c-0.615,0 -1.24,-0.0927 -1.875,-0.2781l0,-3.2056l0.644,0.0146c0.802,0 1.398,-0.1219 1.788,-0.3659c0.401,-0.244 0.714,-0.6489 0.938,-1.2149l0.499,-1.3027l-5.555,-15.8816l4.558,0l2.946,9.851z" id="path11_fill"/>
  <path d="m132.081,54.8788c0.958,-1.0148 1.607,-2.0199 1.949,-3.0153c0.342,-0.9953 0.533,-2.4054 0.572,-4.2302l0.117,-5.1816l11.666,0l0,12.4271l2.287,0l0,8.1677l-4.236,0l0,-4.7571l-9.394,0l0,4.7571l-4.324,0l0,-8.1677l1.363,0zm4.998,0l5.085,0l0,-8.9288l-3.297,0l-0.03,1.9029c-0.087,2.908 -0.674,5.2499 -1.758,7.0259z" id="path12_fill"/>
  <path d="m158.125,58.5821c-2.326,0 -4.221,-0.7124 -5.687,-2.1371c-1.456,-1.4247 -2.184,-3.3226 -2.184,-5.6939l0,-0.4099c0,-1.5905 0.308,-3.0104 0.924,-4.2594c0.615,-1.2589 1.485,-2.2249 2.608,-2.8982c1.134,-0.6831 2.423,-1.0247 3.87,-1.0247c2.169,0 3.874,0.6831 5.114,2.0493c1.251,1.3661 1.876,3.3032 1.876,5.811l0,1.7272l-10.098,0c0.137,1.0344 0.548,1.8639 1.232,2.4884c0.693,0.6245 1.568,0.9368 2.623,0.9368c1.632,0 2.907,-0.5904 3.825,-1.7711l2.081,2.3273c-0.635,0.8978 -1.495,1.6004 -2.579,2.1078c-1.085,0.4977 -2.286,0.7465 -3.605,0.7465zm-0.484,-12.998c-0.84,0 -1.524,0.283 -2.052,0.849c-0.518,0.5659 -0.85,1.3759 -0.997,2.4298l5.892,0l0,-0.3367c-0.019,-0.9368 -0.273,-1.6589 -0.762,-2.1663c-0.489,-0.5172 -1.182,-0.7758 -2.081,-0.7758z" id="path13_fill"/>
  <path d="m180.812,58.2894l-4.251,0l0,-6.0892l-5.261,0l0,6.0892l-4.235,0l0,-15.8377l4.235,0l0,6.3526l5.261,0l0,-6.3526l4.251,0l0,15.8377z" id="path14_fill"/>
  <path d="m197.255,45.8476l-5.085,0l0,12.4418l-4.25,0l0,-12.4418l-4.998,0l0,-3.3959l14.333,0l0,3.3959z" id="path15_fill"/>
  <path d="m208.35,58.2894c-0.196,-0.3806 -0.337,-0.8539 -0.425,-1.4199c-1.026,1.1417 -2.36,1.7126 -4.001,1.7126c-1.554,0 -2.843,-0.4489 -3.869,-1.3466c-1.016,-0.8978 -1.524,-2.0298 -1.524,-3.3959c0,-1.6784 0.62,-2.9665 1.861,-3.8643c1.25,-0.8977 3.053,-1.3515 5.408,-1.3613l1.949,0l0,-0.9075c0,-0.7319 -0.191,-1.3173 -0.572,-1.7565c-0.371,-0.4391 -0.962,-0.6587 -1.773,-0.6587c-0.713,0 -1.275,0.1708 -1.685,0.5124c-0.401,0.3415 -0.601,0.8099 -0.601,1.4051l-4.236,0c0,-0.9172 0.284,-1.7662 0.85,-2.5469c0.567,-0.7806 1.368,-1.3905 2.404,-1.8296c1.035,-0.4489 2.198,-0.6734 3.488,-0.6734c1.954,0 3.503,0.4928 4.646,1.4784c1.153,0.9758 1.729,2.3518 1.729,4.1278l0,6.8649c0.01,1.5028 0.22,2.6396 0.63,3.4105l0,0.2489l-4.279,0zm-3.503,-2.9422c0.625,0 1.202,-0.1366 1.73,-0.4098c0.527,-0.283 0.918,-0.6587 1.172,-1.1271l0,-2.7225l-1.583,0c-2.12,0 -3.249,0.7318 -3.385,2.1956l-0.015,0.2488c0,0.5269 0.186,0.9612 0.557,1.3027c0.371,0.3416 0.879,0.5123 1.524,0.5123z" id="path16_fill"/>
 </defs>
 <g>
  <title>background</title>
  <rect fill="none" id="canvas_background" height="402" width="582" y="-1" x="-1"/>
 </g>
 <g>
  <title>Layer 1</title>
  <g id="Canvas">
   <g id="logo-hneu-student-m-size">
    <use fill="#ffffff" id="svg_1" x="0.919922" y="0.195007" xlink:href="#path0_fill"/>
    <use fill="#ffffff" id="svg_2" x="0.919922" y="0.195007" xlink:href="#path1_fill"/>
    <use fill="#ffffff" id="svg_3" x="0.919922" y="0.195007" xlink:href="#path2_fill"/>
    <use fill="#ffffff" id="svg_4" x="0.919922" y="0.195007" xlink:href="#path3_fill"/>
    <use fill="#ffffff" id="svg_5" x="0.919922" y="0.195007" xlink:href="#path4_fill"/>
    <use fill="#ffffff" id="svg_6" x="0.919922" y="0.195007" xlink:href="#path5_fill"/>
    <use fill="#ffffff" id="svg_7" x="0.919922" y="0.195007" xlink:href="#path6_fill"/>
    <use fill="#ffffff" id="svg_8" x="0.919922" y="0.195007" xlink:href="#path7_fill"/>
    <use fill="#ffffff" id="svg_9" x="0.919922" y="0.195007" xlink:href="#path8_fill"/>
    <use fill="#ffffff" id="svg_10" x="0.919922" y="0.195007" xlink:href="#path9_fill"/>
    <use fill="#ffffff" id="svg_11" x="0.919922" y="0.195007" xlink:href="#path10_fill"/>
    <use fill="#ffffff" id="svg_12" x="0.919922" y="0.195007" xlink:href="#path11_fill"/>
    <use fill="#ffffff" id="svg_13" x="0.919922" y="0.195007" xlink:href="#path12_fill"/>
    <use fill="#ffffff" id="svg_14" x="0.919922" y="0.195007" xlink:href="#path13_fill"/>
    <use fill="#ffffff" id="svg_15" x="0.919922" y="0.195007" xlink:href="#path14_fill"/>
    <use fill="#ffffff" id="svg_16" x="0.919922" y="0.195007" xlink:href="#path15_fill"/>
    <use fill="#ffffff" id="svg_17" x="0.919922" y="0.195007" xlink:href="#path16_fill"/>
   </g>
  </g>
 </g>
</svg>